<?xml version="1.0" encoding="utf-8"?>
<!-- Generator: Adobe Illustrator 23.0.4, SVG Export Plug-In . SVG Version: 6.00 Build 0)  -->
<svg version="1.1" id="Layer_1" xmlns="http://www.w3.org/2000/svg" xmlns:xlink="http://www.w3.org/1999/xlink" x="0px" y="0px"
	 viewBox="0 0 219.2 95.91" style="enable-background:new 0 0 219.2 95.91;" xml:space="preserve">
<style type="text/css">
	.st0{fill:#505860;}
	.st1{fill:#002776;}
	.st2{fill:#009FDA;}
</style>
<g>
	<g>
		<path class="st0" d="M36.33,46.51h-2.91v10.17H15.98V33.43h-2.91v26.15h23.25V46.51H36.33z M42.14,17.06l2.91,4.74V0H13.08v2.91
			h29.06V17.06z M31.97,33.43V13.09H13.08V16h15.98v20.34H46.5v33.42H2.91V0.01H0v72.65h49.4V33.43H31.97z"/>
		<path class="st1" d="M97.35,72.66V67.1l-24.7-40.3v42.96H62.48V0.01h-2.91v72.65h15.98V39.24c0-1.07-0.1-2.13-0.28-3.15
			c0.38,0.98,0.62,1.55,1.4,2.83L97.35,72.66z M72.65,0.01v5.56l24.7,40.3V2.92h10.17v69.75h2.91V0.02H94.45v33.42
			c0,1.07,0.1,2.13,0.28,3.15c-0.38-0.98-0.62-1.55-1.4-2.83L72.65,0.01z"/>
		<path class="st2" d="M146.76,33.43l4.74,2.91h15.6v33.42h-43.59V2.92h42.14V0.01H120.6v72.65H170V33.43H146.76z M165.65,13.09
			h-31.97v46.47h23.25V46.48l-2.91,0.03v10.17h-17.44V15.99h24.32L165.65,13.09z"/>
	</g>
	<rect x="180.18" y="69.76" class="st0" width="38.86" height="2.91"/>
	<g>
		<path class="st0" d="M183.52,95.91h-3.34V85.74h3.39c1.88,0,3.51,0.61,3.51,2.54c0,1.31-0.7,2.05-1.8,2.34v0.03
			c1.21,0.18,2.23,0.99,2.23,2.44C187.51,95.16,185.84,95.91,183.52,95.91z M183.34,87.39h-1.04v2.54h0.99
			c1.16,0,1.66-0.41,1.66-1.31C184.96,87.77,184.41,87.39,183.34,87.39z M183.52,91.47h-1.22v2.8h1.13c1.24,0,1.89-0.38,1.89-1.36
			C185.33,91.96,184.78,91.47,183.52,91.47z"/>
		<path class="st0" d="M190.46,95.91h-2.17l3.88-10.17h2.08l3.99,10.17h-2.35L195.2,94h-4.06L190.46,95.91z M193.71,89.85
			c-0.32-0.87-0.52-1.65-0.55-1.76h-0.03c-0.03,0.11-0.23,0.9-0.53,1.76l-0.86,2.43h2.84L193.71,89.85z"/>
		<path class="st0" d="M206.56,95.91l-3.96-5.65c-0.58-0.79-0.96-1.5-0.98-1.53h-0.03c0,0.03,0.06,0.7,0.06,1.36v5.82h-1.96V85.74
			h2.17l3.67,5.27c0.61,0.87,1.05,1.68,1.07,1.71h0.03c0-0.05-0.06-0.81-0.06-1.6v-5.38h1.96v10.17H206.56z"/>
		<path class="st0" d="M216.65,85.74h2.38l-3.74,4.72l3.91,5.45h-2.55l-3.47-4.9v4.9h-2.14V85.74h2.14v4.45L216.65,85.74z"/>
	</g>
</g>
</svg>
