<?xml version="1.0" encoding="utf-8"?>
<!-- Generator: Adobe Illustrator 19.2.1, SVG Export Plug-In . SVG Version: 6.00 Build 0)  -->
<svg version="1.1" id="Ebene_1" xmlns="http://www.w3.org/2000/svg" xmlns:xlink="http://www.w3.org/1999/xlink" x="0px" y="0px"
	 viewBox="0 0 206.9299927 28.3500004" enable-background="new 0 0 206.9299927 28.3500004" xml:space="preserve">
<g>
	<path fill="#87888A" d="M111.2366104,28.1666565V3.1542828h0.5000839v25.012373H111.2366104z"/>
	<path fill="#E20026" d="M128.3717499,13.0062208c-0.0798187-1.9835863-1.5766373-2.9748745-3.7228851-2.9748745
		c-1.317009,0-3.186264,0.5518484-3.186264,2.4713593c0,1.8702698,1.9825745,2.1787357,3.949913,2.5837679
		c1.9836884,0.4088659,3.9686813,0.9114723,3.9686813,3.220274c0,2.4062767-2.3091965,3.2675991-4.0819931,3.2675991
		c-2.7152481,0-4.925972-1.1214561-4.8939819-4.1130886h0.715416c-0.1453094,2.5364513,1.8870163,3.4961567,4.178566,3.4961567
		c1.3988419,0,3.3656693-0.6335812,3.3656693-2.6506672c0-1.967844-1.9835815-2.3088017-3.9667587-2.7148428
		c-1.9673462-0.4059391-3.9509277-0.8779716-3.9509277-3.0891991c0-2.2279768,2.0649109-3.0891991,3.90168-3.0891991
		c2.4231339,0,4.3253937,1.0415392,4.439209,3.5927143H128.3717499z"/>
	<path fill="#E20026" d="M129.9183197,9.6903887h0.7316589l3.0237122,10.8433275h0.0329895l3.0724487-10.8433275h0.8942261
		l3.1212921,10.8433275h0.0329895l2.9748688-10.8433275h0.7637482l-3.3330841,11.6079836h-0.8129883l-3.186264-10.9901438
		h-0.0330048l-3.138031,10.9901438h-0.7962341L129.9183197,9.6903887z"/>
	<path fill="#E20026" d="M145.4954834,9.6903887h0.7158203v11.6079836h-0.7158203V9.6903887z"/>
	<path fill="#E20026" d="M155.8367157,13.0062208c-0.0798187-1.9835863-1.5766449-2.9748745-3.7227783-2.9748745
		c-1.3175201,0-3.1872864,0.5518484-3.1872864,2.4713593c0,1.8702698,1.9835968,2.1787357,3.9504242,2.5837679
		c1.9835815,0.4088659,3.968689,0.9114723,3.968689,3.220274c0,2.4062767-2.3093109,3.2675991-4.0820007,3.2675991
		c-2.7152557,0-4.9259644-1.1214561-4.8939819-4.1130886h0.7149048c-0.1443939,2.5364513,1.8875275,3.4961567,4.1790771,3.4961567
		c1.3987427,0,3.3660736-0.6335812,3.3660736-2.6506672c0-1.967844-1.9840851-2.3088017-3.9671631-2.7148428
		c-1.9673462-0.4059391-3.9504242-0.8779716-3.9504242-3.0891991c0-2.2279768,2.0644073-3.0891991,3.9016876-3.0891991
		c2.4225159,0,4.3253784,1.0415392,4.4386902,3.5927143H155.8367157z"/>
	<path fill="#E20026" d="M166.0804596,13.0062208c-0.0798035-1.9835863-1.5766296-2.9748745-3.7223663-2.9748745
		c-1.3175201,0-3.1867828,0.5518484-3.1867828,2.4713593c0,1.8702698,1.9835968,2.1787357,3.9504242,2.5837679
		c1.9831848,0.4088659,3.9677734,0.9114723,3.9677734,3.220274c0,2.4062767-2.3087921,3.2675991-4.0820007,3.2675991
		c-2.7138214,0-4.9255676-1.1214561-4.8930664-4.1130886h0.7144012c-0.1447906,2.5364513,1.8875275,3.4961567,4.1786652,3.4961567
		c1.3992462,0,3.3660889-0.6335812,3.3660889-2.6506672c0-1.967844-1.983078-2.3088017-3.9667664-2.7148428
		c-1.9668427-0.4059391-3.9509277-0.8779716-3.9509277-3.0891991c0-2.2279768,2.0654144-3.0891991,3.9021912-3.0891991
		c2.4226227,0,4.3248749,1.0415392,4.4386902,3.5927143H166.0804596z"/>
	<path fill="#1A171B" d="M173.2694244,9.6903887h4.6495972c2.7649841,0,3.6592102,1.5106459,3.6592102,3.0074663
		c0,1.250412-0.9109802,2.3088026-2.2604828,2.4713602l0.0330048,0.0324907
		c0.3089752-0.0482321,2.6167603,0.5026073,2.6167603,2.8458099c0,2.111742-1.6253662,3.2508564-4.0484924,3.2508564h-4.6495972
		V9.6903887z M173.984848,14.9564066h3.9341736c1.9343414,0,2.9428864-0.9755468,2.9428864-2.3876085
		c0-1.6772385-1.3978424-2.2605696-2.9428864-2.2605696h-3.9341736V14.9564066z M173.984848,20.6805325h3.9341736
		c2.0486603,0,3.3330841-0.9095631,3.3330841-2.6330166c0-1.9854965-1.803772-2.4723616-3.3330841-2.4723616h-3.9341736V20.6805325z
		"/>
	<path fill="#1A171B" d="M189.5624084,19.7542267c0,0.486866,0,1.0081387,0.5523529,1.0081387
		c0.113327,0,0.2601318-0.0167503,0.4552917-0.0493412v0.5193558c-0.1789093,0.0335007-0.3419647,0.0659924-0.5050354,0.0659924
		c-0.9750366,0-1.1199341-0.5360069-1.1199341-1.2189293v-0.4394398h-0.0329895
		c-0.3907166,0.9922962-1.5125732,1.8535194-3.10495,1.8535194c-1.5781555,0-2.7975922-0.6010914-2.7975922-2.3580437
		c0-1.9510956,1.6919708-2.3571358,3.0724487-2.4704514c2.7651062-0.1950493,2.8793182-0.3734493,2.8793182-1.7402039
		c0-0.3734484-0.4231873-1.6416197-2.3254395-1.6416197c-1.4968262,0-2.4882202,0.7803974-2.5694427,2.2269678h-0.6173401
		c0.0817413-1.8377781,1.2193298-2.7640839,3.1867828-2.7640839c1.4628143,0,2.9265289,0.4552822,2.9265289,2.1787357V19.7542267z
		 M188.9450836,16.5507011c-0.4882812,0.5528584-1.8219452,0.4877663-3.0256348,0.6504326
		c-1.4623108,0.1625576-2.2915497,0.6828232-2.2915497,1.9343452c0,1.0080376,0.7316589,1.8219357,2.1954956,1.8219357
		c2.8123169,0,3.1216888-2.4062748,3.1216888-2.8458176V16.5507011z"/>
	<path fill="#1A171B" d="M191.5307617,12.9412374h0.6173401v1.7885294h0.0325928
		c0.4231873-1.2515144,1.691864-1.9836788,2.9916229-1.9836788c2.9438934,0,2.9758759,2.3571348,2.9758759,3.3819237v5.1703606
		h-0.6183319v-5.2836761c0-0.8612223-0.0979919-2.731492-2.3742981-2.731492c-1.8692627,0-3.0074615,1.4465628-3.0074615,3.4951391
		v4.5200291h-0.6173401V12.9412374z"/>
	<path fill="#1A171B" d="M200.0032349,9.6903887h0.6173401v7.690053l5.1537018-4.4392042h0.8942261l-3.6578064,3.1207819
		l3.9184418,5.2363529h-0.8454895l-3.56073-4.7644291l-1.9023438,1.6101456v3.1542835h-0.6173401V9.6903887z"/>
	<g>
		<path fill="#1A171B" d="M46.6856079,20.6234207v0.7882595h-9.6992683v-0.7882595h2.8498535l-1.8191109-4.9999323h-6.7282295
			l-1.1819992,3.3335905c-0.2124043,0.5754604-0.2729473,0.9095554-0.2729473,1.1213551
			c0,0.5144119,0.4847469,0.5449867,0.9700985,0.5449867h1.6968155v0.7882595h-6.6681919v-0.7882595h1.0913868
			c1.4554501,0,1.6667442-0.3626518,2.2432137-1.9097233l6.8194466-18.6998825h0.9996643l7.395916,20.6096058H46.6856079z
			 M34.6229477,6.3173366l-3.0616531,8.5187912h6.152771L34.6229477,6.3173366z"/>
		<path fill="#1A171B" d="M56.0538101,8.7433977h5.3044624v0.817934h-0.8489151
			c-0.8485069,0-1.1214523,0.1211786-1.9092178,1.0001678l-3.0310783,3.3040257l4.9402962,6.7578955h1.3336601v0.7882595h-7.6683578
			v-0.7882595h1.8791504l-2.8788147-4.060812l-2.7280617,3.061552c-0.2729454,0.3025112-0.3636589,0.4838295-0.3636589,0.6366081
			c0,0.332077,0.4848442,0.3626518,0.7878647,0.3626518h0.9700966v0.7882595H46.264431v-0.7882595h0.8479042
			c1.2430458,0,1.546566-0.3626518,2.75914-1.6969166l2.6969833-2.9699297l-4.8495865-6.3952427H46.264431v-0.817934h7.9102287
			v0.817934h-1.9092216L54.9934998,13.2605l2.1817627-2.3669224c0.3640671-0.3932257,0.6976585-0.7567863,0.6976585-0.9991674
			c0-0.2729387-0.4252129-0.3330784-0.727726-0.3330784h-1.0913849V8.7433977z"/>
		<path fill="#1A171B" d="M69.9375992,20.6234207v0.7882595h-7.789547v-0.7882595h2.0613823V9.5613317h-2.0613823v-0.817934
			c2.031414,0,3.9100609-0.0916214,5.8502846-0.2738552v12.1538782H69.9375992z M65.6944504,0.9844269
			c1.2130814,0,2.1821899,0.9695939,2.1821899,2.1816535c0,1.2129846-0.9691086,2.1826792-2.1821899,2.1826792
			c-1.2119675,0-2.1821671-0.9696946-2.1821671-2.1826792C63.5122833,1.9540207,64.4824829,0.9844269,65.6944504,0.9844269z"/>
		<path fill="#1A171B" d="M83.9721298,19.018219c-1.6066895,2.0003433-3.698204,2.7571297-5.9104156,2.7571297
			c-2.3639679,0-3.7883606-0.7567863-4.6072311-1.3332539c-0.9395752-0.6661739-2.7275772-2.3344326-2.7275772-5.4246407
			c0-0.7882681,0.0906525-2.5472403,1.484993-4.1534414c1.9702988-2.2723761,4.8796921-2.4851923,5.7892151-2.4851923
			c3.6977005,0,7.0919037,2.6665173,7.0919037,6.4868727C85.0930176,16.7744083,84.9723053,17.7450104,83.9721298,19.018219z
			 M75.4853897,19.6241608c0.3941574,0.7272205,1.1819839,1.5145798,2.5157242,1.5145798
			c2.9404221,0,2.969986-3.2134132,2.969986-6.3026123c0-3.2133121-0.2113647-3.6380281-0.3936691-4.0322552
			c-0.4848099-1.0907803-1.3943329-1.6672573-2.6068649-1.6672573c-2.9694977,0-3.0305939,3.1512556-3.0305939,5.8197908
			C74.9399719,18.5619354,75.242981,19.1689796,75.4853897,19.6241608z"/>
		<path fill="#1A171B" d="M93.6734238,20.6234207v0.7882595H85.883316v-0.7882595h2.0619507V9.5613317H85.883316v-0.817934
			c1.9703293-0.0304728,3.9100189-0.1517611,5.8503189-0.2738552v2.273283
			c0.6365051-0.8484154,2.0309067-2.3640051,4.7589722-2.3640051c0.2118988,0,2.3028488,0.0315914,3.3330841,1.1519375
			c0.81884,0.9105558,0.81884,1.9097233,0.81884,3.0005035v8.0921593h2.0300064v0.7882595h-7.4856262v-0.7882595h1.697319
			v-7.5471725c0-1.6959066-0.0309753-3.3031178-1.8490753-3.3031178c-0.6365051,0-1.8791504,0.4247084-2.6974869,1.6673508
			c-0.5454941,0.7882681-0.6060333,1.6072035-0.6060333,2.4556179v6.7273216H93.6734238z"/>
	</g>
	<g>
		<path fill="#E20026" d="M21.3096733,5.0876184V0h-3.5952358c0.0078697,1.7747129,0.0157413,3.5504351,0.0237122,5.326056
			C18.9299355,5.2718701,20.1203098,5.1920547,21.3096733,5.0876184z"/>
		<path fill="#E20026" d="M2.4156601,4.6727986C4.8830843,5.0009408,7.3643327,5.211731,9.8495159,5.326056
			C9.8573866,3.5504351,9.8652573,1.7747129,9.8731279,0H0v21.3151226h9.7770662
			c0.0093842-2.1304111,0.0191717-4.2608051,0.0290604-6.3913078c-2.4999151-0.2808266-4.9777327-0.8217688-7.3904667-1.634758
			V4.6727986z"/>
	</g>
</g>
</svg>
