<?xml version="1.0" encoding="utf-8"?>
<!-- Generator: Adobe Illustrator 19.1.0, SVG Export Plug-In . SVG Version: 6.00 Build 0)  -->
<svg version="1.1" id="Layer_1" xmlns="http://www.w3.org/2000/svg" xmlns:xlink="http://www.w3.org/1999/xlink" x="0px" y="0px"
	 viewBox="0 0 427.6 187.1" style="enable-background:new 0 0 427.6 187.1;" xml:space="preserve">
<style type="text/css">
	.st0{fill:#334957;}
	.st1{fill:#002A68;}
	.st2{fill:#00AEEF;}
</style>
<g>
	<path class="st0" d="M70.9,90.7h-5.7v19.8h-34V65.2h-5.7v51h45.4V90.7z M82.2,33.3l5.7,9.3l0-42.5H25.5l0,5.7h56.7V33.3z
		 M62.4,65.2V25.5l-36.9,0v5.7h31.2v39.7l34,0v65.2h-85L5.7,0H0v141.7h96.4V65.2H62.4z"/>
	<path class="st1" d="M189.9,141.7v-10.8l-48.2-78.6l0,83.8h-19.8l0-136.1h-5.7l0,141.7h31.2V76.5c0-2.1-0.2-4.1-0.6-6.1
		c0.7,1.9,1.2,3,2.7,5.5L189.9,141.7z M141.7,0v10.8l48.2,78.6V5.7h19.8v136.1h5.7l0-141.7h-31.2v65.2c0,2.1,0.2,4.1,0.6,6.1
		c-0.7-1.9-1.2-3-2.7-5.5L141.7,0z"/>
	<path class="st2" d="M286.3,65.2l9.3,5.7H326v65.2h-85l0-130.4h82.2l0-5.7h-87.9v141.7h96.4V65.2L286.3,65.2z M323.1,25.5l-62.4,0
		v90.7h45.4V90.7l-5.7,0.1v19.8h-34V31.2h47.4L323.1,25.5z"/>
</g>
<rect x="351.5" y="136.1" class="st0" width="75.8" height="5.7"/>
<g>
	<path class="st0" d="M358,187.1h-6.5v-19.8h6.6c3.7,0,6.9,1.2,6.9,4.9c0,2.6-1.4,4-3.5,4.6v0.1c2.4,0.4,4.4,1.9,4.4,4.8
		C365.8,185.6,362.6,187.1,358,187.1z M357.7,170.5h-2v4.9h1.9c2.3,0,3.2-0.8,3.2-2.6C360.8,171.2,359.8,170.5,357.7,170.5z
		 M358,178.4h-2.4v5.5h2.2c2.4,0,3.7-0.7,3.7-2.7C361.5,179.4,360.5,178.4,358,178.4z"/>
	<path class="st0" d="M371.5,187.1h-4.2l7.6-19.8h4.1l7.8,19.8h-4.6l-1.3-3.7h-7.9L371.5,187.1z M377.9,175.3
		c-0.6-1.7-1-3.2-1.1-3.4h-0.1c-0.1,0.2-0.4,1.8-1,3.4l-1.7,4.7h5.5L377.9,175.3z"/>
	<path class="st0" d="M403,187.1l-7.7-11c-1.1-1.5-1.9-2.9-1.9-3h-0.1c0,0.1,0.1,1.4,0.1,2.7v11.4h-3.8v-19.8h4.2l7.2,10.3
		c1.2,1.7,2.1,3.3,2.1,3.3h0.1c0-0.1-0.1-1.6-0.1-3.1v-10.5h3.8v19.8H403z"/>
	<path class="st0" d="M422.7,167.2h4.6l-7.3,9.2l7.6,10.6h-5l-6.8-9.6v9.6h-4.2v-19.8h4.2v8.7L422.7,167.2z"/>
</g>
</svg>
